<mxfile host="65bd71144e">
    <diagram id="Vv-dXDPLpFXJxgcLQmtD" name="Page-1">
        <mxGraphModel dx="820" dy="271" grid="1" gridSize="10" guides="1" tooltips="1" connect="1" arrows="1" fold="1" page="1" pageScale="1" pageWidth="850" pageHeight="1100" math="0" shadow="0">
            <root>
                <mxCell id="0"/>
                <mxCell id="1" parent="0"/>
                <mxCell id="3" value="" style="verticalLabelPosition=bottom;verticalAlign=top;html=1;shape=mxgraph.basic.patternFillRect;fillStyle=diag;step=5;fillStrokeWidth=0.2;fillStrokeColor=#dddddd;fillColor=#f5f5f5;fontColor=#333333;strokeColor=#666666;" parent="1" vertex="1">
                    <mxGeometry x="270" y="320" width="1420" height="280" as="geometry"/>
                </mxCell>
                <mxCell id="2" value="" style="shape=image;verticalLabelPosition=bottom;labelBackgroundColor=#ffffff;verticalAlign=top;aspect=fixed;imageAspect=0;image=data:image/png,iVBORw0KGgoAAAANSUhEUgAAAr4AAAFxCAMAAACiD1u7AAAABGdBTUEAALGPC/xhBQAAAAFzUkdCAK7OHOkAAAAgY0hSTQAAeiYAAICEAAD6AAAAgOgAAHUwAADqYAAAOpgAABdwnLpRPAAAADlQTFRF////AAAAAAAAAAAAAAAAAAAAAAAAAAAAAAAAAAAAAAAAAAAAAAAAAAAAAAAAAAAAAAAAAAAA////AuJdXgAAABF0Uk5TAAAwQCBggL/fz69QEI+f73CiEHkmAAAAAWJLR0QAiAUdSAAAAAlwSFlzAAALEwAACxMBAJqcGAAAHCRJREFUeNrtnW2DqjoMhO+KgiiC+///7D37DjppkwIN2Hm+nqOLzFDSNE3/+48QQgghhBBCCCGEEEIIIYQQQgghhBBCCCGEEEIIIYQQQgghhBBCCCGEEEIIIYQQQgghhBBCCCGEEEIIIYQQQgghhBBCCCGEEEIIIeSBNxOHqqqOto8UgLeGBaNU6Hiqm/P7D+2lvnbeptkO3hoWjEae6+3PuX+0NcfhL7w1LJioNscaeffbwSeOwW+0ryMRZY79e5ChpoFpXz+CusTM+2Vgb/e4461hwYRkuQ9x9/7jXHn7xxlvDQtGFuXYqMz7wa3sCMJbw4IRNbnqht7vOdzB20KeeGtYMJIktcG8HxHw1dtDjnhrWDCCIoo52wMnbxP54a1hwWBB7O4t2b/eGhYM1CPFvQX711vDgkFypLm3XP96a1gwQI17onvfh0LzD94aFsyzGFWqe9/fz2Xmf701LJgnLbpzun3fL95OcsFbw4J50uIyw72Fhr/eGhbMoxQzQofP8LfE8MFbw4J5lGJO6PBB7+0l2rckHpRIzjr8UuAWDG8NC+ZBiUCdztCfvhJj1T0UHxc4/HprWDBTIU6iK8+TSVlXyz4vb/j11rBgpkJIke9wf5Ssu3H4/cFbw4KZ6CClHWA5r1QQXF7ywVvDgpnoIBQ7tNiQB8G/xeV+vTUsmIkO2I+tJJvg3+KW3rw1LJixDFc8aZODgQMefr3tlBtvDQtmLAOejYX2EdfmT7wi3hoWzFiG1p5IgKmK0jo/eGtYMGMZ4FAaziPARHHj7afMeGtYMCMVYNoslsVFw+/g7afMeGtYMCMV4Ega20AB4+XCMr/eGhbMSIU6ZSCFyYfC5m7eGhbMSAU0kMbDWNqX9vVjpALqaRZPIqBP3aOfeim8NSyYiBHT7FtY5sxbw4KJGDEeBvS0r7eGBTNSIc2+F9rXW8OCGanA4CERbw0LZrYR0Uozp24kDyMVUN6XiTMF3hoWzEgFWD4Wk66ifWlfP0YqwHLfWNf0W4rnXwxvDQtmpAJc/41tnUAbLliyQzIxlgHZN7LvnQWTb7SvI2MZGrMXO7jbrbC8Ge3rx1gGvPUnFP3atxe9It4aFsxYBrzzMtAzHTflKS30pX39mOiAm+y0UvW5sNG4uDY73hoWzEQHofFTi6dvldCmpLgTCr01LJiJDsJw+j6gaFbqpXr2dlN2vDUsmKkQ4incT4duH8T/asw7dFV9a5r23zPSNJf6tMdpn7eGBTMVQm6QOtzGEUQVOPrNsk/z2j+H2819b+dreWtYMA9KhM4GaG/X6vh2qE596H/pJ25VLzUJPt931STYW8OCeVDi+j6TQWu8U/gUjX5HQ7C3hgXzKEWjtKmEMvI9xY+AuexmBPbWsGAepTgoLBpAd67moVV92W0n7U68NSyYJy1qlbMkNIkD+VyBp4dhH3kIbw0L5lkM3cgojJcKsZVDr/4L3fHWsGCexTgOBntNaRVan2xf3+wggPDWsGCAGsnZB82hLOZzD9vtpyC8NSwYJMfJarFv9yqM1q/ztbRvoUA91HOrCYp5VoJ7d+Bfbw0LZjmbKc7DSjwxeesnxXlrWDBLGU0zRCYGJYGK423grWHBiFazJQjOCvce0lMa266A99awYGSzxZd1/7gohsduTkJ50yd1emtYMAG7qSdwg6qnWdp88OdPbLkAwlvDggnJUukG4EZlrUr1XfIf8fYo7btFwsLU8XBVW5cwJ3T4YMM76Lw1LJiIMl0dHoFbbVCanHX4fUy8TUr7bhCF8S6So4ZeXxEWegrO/b36x6kOFhtvd/bmrWHBaOQ53i8D8NzVkI0NDL7jfRXdXbb5dodfbw0LRivRY97AGIqKrnzaUyEnnDc7/HprWDBaiR6r2G2F5FLaYQBPQScFK5tNPnhrWDB57CvUUAjte6QNH1vN/XprWDB57IsDArGUQYiUt3rii7eGBZPFvrgAPrCShkdrzWYO2rcostgXrxeHZn94kWOjhWfeGhZMFvtCMwZPzcD79Te68uatYcHksG+XMBGD4cNG9x17a1gwOewL02aREt4j+sxGU2feGhZMDvvCrRuxL0DZ340eO+CtYcHksC/K40aXgGHyzNuo3hyqU13XzT82GkcJ7Nq+qBInuv0HRg/7aBq1Cof7ZTwD3mgcJfBy9o13olzOvs0zW997/0D11FJ5Yt8T+IXelzzh5ewb/3zapxB7H8ZRN9mJPVF05n3RE2jfYu2Lt2zRvrTvDuiEaifal/bdPkdpiyDt62rfeO05qlIrzb5yZxfa19W+0bwlXGkuzL6dvHWK9rXY9/AYglmOrkLhW7T4ERZZppWc7da+ga2rtK/WvhXeATxctBaGuydin4VTlrSbt1f7hvok0r4q+177UKeS802T/4cDaWTrRIf+bGK9+k7t24XuPO0bt++xjreJak/RNzos3o0UPcCSh8RGkzu1b7DJMu0bs+9R2aR6qGMGhsNIcPjFk5bEzW77tG9w8KV9I/bVmldjYLj1Pdg0Em82TqxU2Kd9w221aN+QffXdUb+9GBwY8RwkUFWC+0Kklvvu077SgsX59tFSa/Ik075TrvZG6KEDrISjtsRQVsjWp/ZY36V98Q6r9wZdOe07uXNiU74gUg1kJ4Yhgh+ltabUnZq7tC9+5PFLjvYdYToWYDIywAg41CO4R5+ohA8k9+jbpX1h9H/X/1/v65+Q0b4zOvGC44UiHdqfm1vLUXe8wl1gl/ZFS0XSbIH2/SXp5MBfHipxjk30E9NgrguM1cktznZp39Zw1bTvD/PcO/WvMn1xvn3Lcgwu8aUfjrVL+6IbJf1f2vebue4d+/duSF8MTRMbqNP7S76KfcUqPdr3k1lHr/3wPUpWS3yXRrskJ2zevihvJubWad9P4pGqho/x95iWe5OZc67xHu1bWS6a9v1gfuTw7d+unv8lD8zpzkf7epPDvonnvQNSE8cyl+Q790b7+pPBvjOPvVyV86zOvjnt21XfzGyEsl37Hn5+oWEuvb59u/Tz3ldnmOeFTPat6kkbp/dzU6f/mS3at7vWzcQlbX/XKbO+fZeZtq3DzCOxMtj3eBfmqpfEa9+cfQ83nEo69woHr27f5QJfmfM1LZk290A3k32l5GEocXcKPfvDbfyWBf9zvBiuvicz6n2FiqhQ/XXouMh/uo4Fgs/d2vZVhg5t0zSpQcZHSXBSYnn2cYTohor/WRhF5TW/2LHP75PKJH/7SvV88m2O71wYGdjFvvGcWVtXPyIcrjd7buH2+ekE/84/TBPdUOn/CjdCdm+teZz/qvnd7SspIN5m3bab9ueOetg3lnU4P+2JP/SmUbj5+by1lnhY4ChYdEOF/ypUaYjurbTP8c8N8Lav2b2qx3P0MzzsG563neFv69Q/7F/QG7nX8ieXaMSLbij+n0KxqHR+ouVZHKpN2FdQWnLvwfC2/LpLDvYNDr6DWGerVO/xCyr9uN0vcpIbuqFLuNdY13/agH2FQECal9om9J9jjYN9Q4NvaA+bak/cswU75er0eaFz3NANRf9PeIol95rr+k/u9rVF9lqdfvnIz+e37yFwRZHx7xh7ueA2/JUmyxxtH7GwfQ+2k5cTKkROzvYVBlPJvfZp9tA52DcgRLRGPPwbz+KM4BS5N0O/3Pnx6Iaq3SulQ5Pqmw6u9hVeF4LG0ZEJ0XbZ7dvJV6PY4RDyb3D8rAIGON+XPL4Y3VDt75DWq9Oq886do32FdgVCNdQxLb/fZ7evHMOp9ucE/BsZQLsTnPvp+v4tbN8s7v13R/3sa4uNkncuoNTjqvYV8wfKho7yc6roSTatcxma22m5oMFiX5t70+uZwb3KY99M7oWsaV8xdhi0RrpK36BuaGquwFvavsJoKrh3Ri8BQBb7dqvPSwOsaV9RC30/R3H8XjKCXdO+glrCxPOwbG1pDvsKo6nk3oULuNa0r/SgGXpBH6XrXmDFN4d977arX3gTagb7GiP7w/uyrGlfaenIUhIrNXRI782Q077C+0dybzTwPX8dy6pdk4OrmsvW++IhStwFEH0+269fqPyBa9pXGjlNHcWkL0ns5r8wEScY3Su+aj5p7qOvru6q5Rn0Vxa1r9G9wedz6E9/n+t0tYcr2lead9ne+1IEsro1NYSdYO3GGnDkuX6afYYLvfPYF78bRfeGar+bZ1soag9XtK/0qNlmXdJDsIkdvcHrsrpXLm+SWnSfIgZe277C28Va8vwuNBf+qD30s69wsdad6eYS/oyEtOusnbDFuPAiPvAReVe2rzE2koOjQAf9SCvGFe0r/GHrKShC7iy5qemSBJwgTMll90qDb7isPphqW9e+QhZBvlwxExVcCw2m2la0r3BjrW99YYDZROpB/nmCewOnbghPe2wrf7AyBH1gKfsKD47sXmkVq4lEk6Ha2RXtK/xFq0WEUamxfs8ayE7AI00rKyW8WeONKAL+XdO+gnsD79bkcSjwhsluX3MjfuEdtW37mt1rncSPkP27on3NsZG0DNAqZvLypDa7fe2226F9sReDSuERRrUrRByd1rNvgnvxMKRr0iWWH6xn38VGzf3ZF9/toFI4P6hsPSwlF9ezLw7Ug3EAfqSVMyGp9mU9+y4Ws+7Ovti94TgAiqvuH2jJzixhXxwbhaNYGDtoW4NLCx607xygE/BrJxLFQnHVSRpB3bXsK0T2wUuEd0XfGlxaIVnNvovZbmf2xZFoxL3HmT8Rz+pXsi/OxEbmYPBDhrUnPPHLbl/z8cE7yzzcU9yLBxdDhhwPv+vYFw+EsQwCim8sXsB/lXnfOSBJ4NXGMggo9DWlGOH7fB37JrkXjp6mlVMcXq1n33VX3WacB7QcWnGjL0k0kzetrsN3VD77RoNYuORm2sMFJ7fbr3kQvmarNQ9J7oWPum2Dnnp0W8O+8dUV9FdtNdvwAc1fcWZ96ydbIgNLuRd9kbEgHw1OueyrWBtEoatxBEIPKOt956ASV6ESspQxOrpq//Ly9tWsbNeWv4pBw+GK9pVWqm3jprTeYvvpK6ERVzOKoltl7CKIUm+Z7KsRdIFDMuATsJ59pQK5197rluRDNHRaGwL52Vez+ABmMFYJczeJkrayWIZfqcR5E+W+OvsqmrIscYBPpEnULyvEvorpTJP0qfiFr2hfyXqG4Xd/fR4A8WFm5/ZVhPfg6sypz8z2LbLLDiIqFHCJeXXS077xSEd7dca7/eI9zo7fx4xa71T6DYXEwl/gEvOqoqt9o7VxO7Sve4fJcfDd9Hk6TMLSlNjzuqvRF1o6tn98Afui0ZD9feeAbij0b+R5XSL2BRPllSrOoCyRAQXY1zr7zt9dXd5jp3j0zHtof39n4FyiDN3VG/MFw+fcep3aPzrfvvilGB4ZFsg8oEjS7WyLqH8jZ1uI4WSs9cxwW87A0An4oQ2G3yZL6b9irXJ1OCUJh79gTdsaHmVetniLnCwUvtjUk4UUPUaHlU8WguoGc/vIUsbSJnVRwWqbhYLhL/oi41wEvdU8z3ULXX7iuW7KwyiHdc91g7V9oXclmpUYm2khR61m3w6+4UIPHJoRGHP36E/u+1TNhxum8fyPOdY8VRPHPbXti4zv1kH7FxfZaYxfq4HwF/1V29wNvtP2fqbx+MbftJ/6/OSaZxpjdQPRLLpNpjcEFHfFNiUwexYIf9H7xfaAwoDF/UT5erET5dUtub9v3ponyuPsr6wu0sY0OGXcLPT1L/BuBwIeJKrpAcUT4pXtqzhJpr1dfyx4OPW2w6g/+MokJBy4NN+/shNg9COHv9DuhvgGL3CuaV+cPZPDX2R3S+os+1bN7xurG0sHw4EGT5+9Jx4XNtu/shMMW38/0G9V09ts5Q6TeEH/YPkmS3Iw+0b5bxY+CgnSXtPO5Jnr34AiOGoS9UJu1zfxOOZtU/KFrTEQvB/64Td/m5IflMksF2b6N+QEqK7oSHiT1NGvEKGta1/8whPDX/tizoj8TaKif3oLaLZpJdoXlwZI440Q2ukuQ5ofr3w4AM6vSOEvrkJRvmCkpFIG+0azD56ou+DZ7XuwhL/djKvrpOnu2kez4LjQdN6t7gUjOiiHfRcMf5cfyK0nxejtK/xswSo4xFIFh2J0tvrBWHC2LTxzQvW3JnyTC2ez2Hexc5hP0ZOS7MxZP444AfpKCH+FynzF6CTf3NXti+NC4ZptxzuP/4o8L89j34X8+/FLj8n5NQH9/N5sX/xWF0ZUIQKI+tda1bfoqZr4ocOOTG2cEMqJZrJvUlr2ke8tY5V9ZUPztSvYV1AMh7/SeyVSnREaGDKcaYzzKzj8lTwQ9u8hZJ1M9l3Cv3/j0N0QAp/j6yHpm4iiTsCehG4REzShY8/CZaUZ7Is9iftNiptv+sATGi7DymXf+fHD+BntdNU5bf2ty/EaKqRI7xkRdwJUF8crclgv1idHapty2PdgCH/F1+ZZPKU8smiQz74z/fvwAxUhcD8ZtbrALozk4TfuBDxphumOQH4cFth3sX0lWewr5FegH8WN4/BE7n83L2qZjPYN7NyMAqKpa1i89kkSechObraqcAL+0TC3H8wv9tepg6+Kwrws9hXyKzDiCY0559v0Ko4nxSQ9p33fDqmTLnxuaOjVCcOpSviA+ahEg32FrCxUNzI/aPv6+tG04lrfdOmXPPbFbw0Y/oY2j33qfKs/23Kcpk0OZLLaV72ZRyPDx9eJLxchnJUO8EvN/WqcgLNn5xR1F7lvi9tXyK/02u+bQ177mvbz/BCaeVuT/YJ/UydvKidgU8Lwd2F1M9lXqEiA4e8SCdTxhWe2rzZp8MsQ3HGLw8XAUiseKVKjB50TsCnh71pW3Vz2FfIraNg5LLvsn92+mvnk6BZE9rTjaUMok4C9lFh4pnRCo/6by1bnZbPvUR/+zpi/owvPb1+9geMNGYw7Vt5S9njPty9WF4e/qf4dwAiYzb6WcrLkACnz2RYhjnV8ZtmeotUIMKyMRALwTicGv1on4BAdhr+po9M1W4s++B/xnByGv4n5/yF/k6gQ4cRle9OsJei3h/8B38+JZw2onYAlg2N+mn/7fB0m8V2FwxHO/qb595q9RV+MQ90gL53VvUzhiyj2WXj3LKb9Q+0EoaIcqpvi339hpq99hTkxLn5I8e8tf4dJDU9xsKUFJLoP0YEUDtlpVZN6J+DsGa7stse/H0UUzvYVYtre8H9D9A4NUlU8/hRLZ0U0pY/WP8Ky/7T+64Yvwik+vNcj2p7wgc93tLd9haQfXhE6GZ/Q/q0U+8ar9+EU1vBX/7B8Ec6e4ZSHLTn+9YZ2ty/OrwhZzIPpCe3FC385+8Y/n/YphOWLhJSukHE21OR/l3e421fIr7SGr8Z8t/Oifed8CmH6IqyutJlY26fwt9erv32FKZkUzWm3ff0UDdC+cz6FsH0RjgjErc6qxZ2/yroN2FfIr4gFUZXCwH+dFGnfOZ9C2L5I2DAlr/gdYyNwPwosN2BfIb8SWMSvIo/oebTuWoZ947XnyBNp9q2eCWXgjhUiWG8RWNxppynGw/M3Q9t0lotGVxy6XHAR0nX8XM5dHoIvk2k4vPCXs290/RceNLvWwYULUNXPP3O43Jc/pc6L7nR7fi+d+3jNwD92bV/0bosWP8JVLQfVLByruu6bTy51Xb2OdX+prnX99QObvr5X2mWkXdsXrgXEvgBVl5jPsMzDauKQGDnsCxfaYyduoc+YTxCmfV+cHPbFbd/Cr1Y4153RaYf2fUly2PfN1iH5Azj4zurTR/u+IlnsezObEadpljzomPZ9BbLYFy/EBnqm45X2xGp12vd1yWJfvNlNqJJ+E0vBE7e60b6vSx77CouOwnnJ0kaGreZRvTUsmDz2lXoeD+BrxKY8G02b0b6OaCV6nH0ZkwBiXWz/OKTKDRkXOB6W9n0xNPIcT5fn4PXcWxwc2Ng47pAa6iaa3KGP9n1dFM4TG/YNvT6ECG1LOPf3r4aFwcLSzQ6+tK8fEWViuwlaralmdx3a7uBL+/oRFkaxFeasjCHmtrXb7uBL+/oRkkW5EbFRJbRmHto561xC2vdVkUXRbwMfVOsJxparD39iqzlf2tcVURPTEQGNohph1qFbGy3WoX2dkSQxNlg5K1rvzuh5nH4oFu370giKmI/nHhT+vVq/9Iet1urQvt5gQVKaCypSA4nZs3ajhZK0rztQj7RZlmINI+mLNz1to31dQXIkDpKa+CHBv5qvpX0LBaiRHKJqhknzo7H1yIH29eRZjBkJAs0Uy3hk3GX77qV9/XgWY056VrMV2NQzNvkcY9q3CJ60mHdkpKoETf0nzhtuCkX7boFHKWYe2HtWvesPyrOqdxA40L6uPEqhbEY8921/ii9J91vPl9G+/jzaaqZ79UnaiIH3Y17a15EHJUKeautr9dG/9XQL/S99ecJVXNs7W47d8sdbw4KZCiEPvkM9Hg5D7bYNw2Z37Z+fhOa++XUK2ncrTIUQI9/b43Aon9hhzHV1VX377hjbXOrT3qxL+7oy0UFKO6B2DGJR2kab8K6It4YFM9FBqEho8ZBYCetnmy4tXwNvDQtmooOxFZmwvLzt2vIV8NawYCZ2xMGAPBfDM73iogdvDQtmLANezA3FAjja2MdS73J4a1gwYxlgMiG4Qx2fALyLOpsF8dawYMYywKE0nMaF4cNmW0GuhLeGBTNSAYa+sfYgaPgtLfj11rBgRirAXRaxLBiMfr39lBlvDQtmpEKd4kTY+6mwuZu3hgUzUgHZNx7G0r60rx8jFdIOfkdbf7Z6hspKeGtYMCMV0uyb9qmXwlvDgokYMR4GXGhfbw0LZqRCmn172tdbw4IZqcDgIRFvDQtmthHRpzh1I3kYqYBWIJg4U+CtYcGMVEB53+j674H2pX39GKkAy2+SFo13tU94Pt4aFsxIBbj+G9s6gfbMs2SHZGIsA7IvCybjeGtYMGMZYOvH8PALG5YUljejff0Yy2Df+lObP/GKeGtYMGMZcFv1QNNI4aRMbzvlxlvDgpnosMxG+S2f37oK3hoWzEQHoXOZ4F/pFIENH569Dt4aFsxEB+nYbNhmRzqkYigs60v7OjIVQup8+nzotnxgd3FNdmhfP6ZCyA1Sz5OQ4FjL5wPtqK/0QnhrWDAPSgQaTw/9d/fS6n6R/1eBgy/t68eDErMPByhw8KV9/XiUIn5kShjNyW6vhreGBfMoRTXPveWlHWhfT560SDtN/ofiWlN/4K1hwTxp0c0JH4pbcPvEW8OCeRZjxrmaujM1Xw5vDQsGqJGcfRj2eCzQAnhrWDBIjj7RvkUGvm+0ryNQjzT/Fleq84O3hgWDBUnxb7HupX39EBSx+7dc99K+fkiSGNO/Q8HupX39EDU5DQb3toXmHL7w1rBgZFGOrdq9tzLzvT94a1gwIVnuugH4XNrO4ke8NSyYoC5HxQxuqMseet9oX0ciysQMTPO+0b6ORLU51nINT3uied9oX0c08lxvyMFtXXS6YYS3hgWjVOh4ujV/Hm4v9ZXj7i/eGhaMTahDVVUFbmaL4K0hIYQQQgghhBBCCCGEEEIIIYQQQgghhBBCCCGEEEIIIYQQQgghhBBCCCGEEEIIIYQQQgghhBBCCCGEEEIIIYQQQgghhBBCCCGEEELI/vgfTlR0jUBDGkUAAAAldEVYdGRhdGU6Y3JlYXRlADIwMTctMDQtMDRUMDk6MTY6NTErMDA6MDCHa4BVAAAAJXRFWHRkYXRlOm1vZGlmeQAyMDE3LTA0LTA0VDA5OjE2OjUxKzAwOjAw9jY46QAAAABJRU5ErkJggg==;" parent="1" vertex="1">
                    <mxGeometry x="540" y="380" width="342.45" height="180" as="geometry"/>
                </mxCell>
                <mxCell id="4" value="Event &lt;br&gt;Producer 1" style="strokeWidth=2;html=1;shape=mxgraph.flowchart.start_1;whiteSpace=wrap;fillColor=#008a00;fontColor=#ffffff;strokeColor=#005700;" parent="1" vertex="1">
                    <mxGeometry x="310" y="370" width="100" height="60" as="geometry"/>
                </mxCell>
                <mxCell id="5" value="Event &lt;br&gt;Producer 2" style="strokeWidth=2;html=1;shape=mxgraph.flowchart.start_1;whiteSpace=wrap;fillColor=#008a00;fontColor=#ffffff;strokeColor=#005700;" parent="1" vertex="1">
                    <mxGeometry x="310" y="440" width="100" height="60" as="geometry"/>
                </mxCell>
                <mxCell id="6" value="Event &lt;br&gt;Producer 3" style="strokeWidth=2;html=1;shape=mxgraph.flowchart.start_1;whiteSpace=wrap;fillColor=#008a00;fontColor=#ffffff;strokeColor=#005700;" parent="1" vertex="1">
                    <mxGeometry x="310" y="510" width="100" height="60" as="geometry"/>
                </mxCell>
                <mxCell id="7" value="" style="shape=flexArrow;endArrow=classic;html=1;fillColor=#e51400;strokeColor=#B20000;" parent="1" edge="1">
                    <mxGeometry width="50" height="50" relative="1" as="geometry">
                        <mxPoint x="420" y="399.5" as="sourcePoint"/>
                        <mxPoint x="530" y="400" as="targetPoint"/>
                        <Array as="points">
                            <mxPoint x="450" y="399.5"/>
                            <mxPoint x="480" y="400"/>
                        </Array>
                    </mxGeometry>
                </mxCell>
                <mxCell id="8" value="" style="shape=flexArrow;endArrow=classic;html=1;fillColor=#e51400;strokeColor=#B20000;" parent="1" edge="1">
                    <mxGeometry width="50" height="50" relative="1" as="geometry">
                        <mxPoint x="420" y="469.5" as="sourcePoint"/>
                        <mxPoint x="530" y="470" as="targetPoint"/>
                        <Array as="points">
                            <mxPoint x="450" y="469.5"/>
                            <mxPoint x="480" y="470"/>
                        </Array>
                    </mxGeometry>
                </mxCell>
                <mxCell id="9" value="" style="shape=flexArrow;endArrow=classic;html=1;fillColor=#e51400;strokeColor=#B20000;" parent="1" edge="1">
                    <mxGeometry width="50" height="50" relative="1" as="geometry">
                        <mxPoint x="425" y="539.5" as="sourcePoint"/>
                        <mxPoint x="535" y="540" as="targetPoint"/>
                        <Array as="points">
                            <mxPoint x="455" y="539.5"/>
                            <mxPoint x="485" y="540"/>
                        </Array>
                    </mxGeometry>
                </mxCell>
                <mxCell id="11" value="" style="shape=flexArrow;endArrow=classic;html=1;fillColor=#e51400;strokeColor=#B20000;entryX=0.566;entryY=0.569;entryDx=0;entryDy=0;entryPerimeter=0;" parent="1" target="3" edge="1">
                    <mxGeometry width="50" height="50" relative="1" as="geometry">
                        <mxPoint x="882.45" y="479.5" as="sourcePoint"/>
                        <mxPoint x="992.45" y="480" as="targetPoint"/>
                        <Array as="points">
                            <mxPoint x="912.45" y="479.5"/>
                            <mxPoint x="942.45" y="480"/>
                        </Array>
                    </mxGeometry>
                </mxCell>
                <mxCell id="12" value="" style="shape=image;verticalLabelPosition=bottom;labelBackgroundColor=#ffffff;verticalAlign=top;aspect=fixed;imageAspect=0;image=data:image/svg+xml,PHN2ZyB4bWxucz0iaHR0cDovL3d3dy53My5vcmcvMjAwMC9zdmciIHhtbG5zOmNjPSJodHRwOi8vY3JlYXRpdmVjb21tb25zLm9yZy9ucyMiIHhtbG5zOmRjPSJodHRwOi8vcHVybC5vcmcvZGMvZWxlbWVudHMvMS4xLyIgeG1sbnM6aW5rc2NhcGU9Imh0dHA6Ly93d3cuaW5rc2NhcGUub3JnL25hbWVzcGFjZXMvaW5rc2NhcGUiIHhtbG5zOnJkZj0iaHR0cDovL3d3dy53My5vcmcvMTk5OS8wMi8yMi1yZGYtc3ludGF4LW5zIyIgeG1sbnM6c29kaXBvZGk9Imh0dHA6Ly9zb2RpcG9kaS5zb3VyY2Vmb3JnZS5uZXQvRFREL3NvZGlwb2RpLTAuZHRkIiBpbmtzY2FwZTp2ZXJzaW9uPSIxLjAuMiAoZTg2Yzg3MDg3OSwgMjAyMS0wMS0xNSwgY3VzdG9tKSIgc29kaXBvZGk6ZG9jbmFtZT0iQXBhY2hlX1NwYXJrX2xvZ28uc3ZnIiB2ZXJzaW9uPSIxLjEiIHZpZXdCb3g9IjAgMCA0MTQgMjE1IiB4bWw6c3BhY2U9InByZXNlcnZlIj4KPHRpdGxlPkFwYWNoZSBTcGFyayBsb2dvPC90aXRsZT4KCjxzb2RpcG9kaTpuYW1lZHZpZXcgYm9yZGVyY29sb3I9IiM2NjY2NjYiIGJvcmRlcm9wYWNpdHk9IjEiIGdyaWR0b2xlcmFuY2U9IjEwIiBndWlkZXRvbGVyYW5jZT0iMTAiIGlua3NjYXBlOmN1cnJlbnQtbGF5ZXI9ImcxMjY1MCIgaW5rc2NhcGU6Y3g9Ijg5LjA5MzQ4MyIgaW5rc2NhcGU6Y3k9IjE3Ny40OTgxOSIgaW5rc2NhcGU6cGFnZW9wYWNpdHk9IjAiIGlua3NjYXBlOnBhZ2VzaGFkb3c9IjIiIGlua3NjYXBlOndpbmRvdy1oZWlnaHQ9IjEwMTQiIGlua3NjYXBlOndpbmRvdy1tYXhpbWl6ZWQ9IjEiIGlua3NjYXBlOndpbmRvdy13aWR0aD0iMTkyMCIgaW5rc2NhcGU6d2luZG93LXg9IjAiIGlua3NjYXBlOndpbmRvdy15PSIzNiIgaW5rc2NhcGU6em9vbT0iMS4wODYzMTUiIG9iamVjdHRvbGVyYW5jZT0iMTAiIHBhZ2Vjb2xvcj0iI2ZmZmZmZiIgc2hvd2dyaWQ9ImZhbHNlIi8+PGcgdHJhbnNmb3JtPSJtYXRyaXgoMS4zMyAwIDAgMS4zMyAwIDQuMDVlLTYpIiBpbmtzY2FwZTpncm91cG1vZGU9ImxheWVyIiBpbmtzY2FwZTpsYWJlbD0ic3BhcmsiPjxwYXRoIGQ9Im0yODQgODEuNWMtLjI2OS0uNTc1LS4zOS0uODY0LS41MzUtMS4xNC0zLjg5LTcuNC03Ljc3LTE0LjgtMTEuNy0yMi4yLS4zOTQtLjc0Mi0uMzQ0LTEuMTguMTk1LTEuODIgNi4xOS03LjIzIDEyLjMtMTQuNSAxOC41LTIxLjcuMjE5LS4yNTQuNDE0LS41MjMuNDk2LS45NzYtMS44LjQ2OS0zLjYuOTMzLTUuNDEgMS40MS03LjQ3IDEuOTgtMTUgMy45NS0yMi40IDUuOTYtLjY5NS4xODctMS4wMS0uMDE2LTEuMzYtLjU5NC00LjI0LTcuMDktOC41MS0xNC4yLTEyLjgtMjEuMi0uMjE5LS4zNjctLjQ1OC0uNzIzLS45MjYtMS4wMy0uMzQ0IDEuODktLjY5MiAzLjc3LTEuMDMgNS42Ni0xLjE5IDYuNjctMi4zOCAxMy4zLTMuNTYgMjAtLjEyOS43MTktLjMwNSAxLjQ0LS4zNjcgMi4xNi0uMDU5LjY4OC0uNDE0Ljk0Mi0xLjA0IDEuMTQtOC44MSAyLjc3LTE3LjYgNS41Ni0yNi40IDguMzUtLjM4Ni4xMjEtLjc2NS4yODEtMS4xOC42NTYgNy4yIDIuODYgMTQuNCA1LjcyIDIxLjcgOC42My0uMjY2LjIxMS0uNDQyLjM3NS0uNjM3LjUtNC41IDIuOTEtOS4wMSA1LjgyLTEzLjUgOC43NC0uNTM5LjM1Mi0uOTY1LjQwMi0xLjU3LjEyOS01LjM4LTIuNDItMTAuOC00LjgtMTYuMi03LjItMi40Mi0xLjA4LTQuNTktMi41MS02LjI4LTQuNTktMy44My00LjY4LTMuMDctMTAgMi4wMy0xMy4zIDEuNjctMS4wNyAzLjU3LTEuODYgNS40Ni0yLjQ4IDguNjMtMi44MSAxNy4zLTUuNTIgMjUuOS04LjI0LjcyNi0uMjMxIDEuMDYtLjU1NSAxLjItMS4zNCAxLjE2LTYuNjggMi4zNS0xMy40IDMuNTYtMjAgLjY0NC0zLjU3Ljk4NC03LjIyIDIuNzItMTAuNS42NjUtMS4yNiAxLjQ2LTIuNDkgMi40Mi0zLjU0IDMuNDQtMy44MiA4LjIzLTMuOTYgMTEuOS0uMzI4IDEuMjMgMS4yMyAyLjI4IDIuNjcgMy4xOSA0LjE2IDQgNi41MyA3Ljk0IDEzLjEgMTEuOSAxOS43LjQ2NS43NzcuODgzLjkzMyAxLjc0LjcwNyA5LjY1LTIuNTkgMTkuMy01LjE0IDI5LTcuNjkgMi0uNTI3IDQuMDEtLjcxOCA2LjA2LS4zMzUgNC40NS44MzIgNi40IDQuMjIgNC44OSA4LjUzLS42ODMgMS45Ni0xLjg3IDMuNjEtMy4yIDUuMTgtNi43NCA3LjkzLTEzLjUgMTUuOS0yMC4yIDIzLjgtLjU1MS42NDgtLjU2MiAxLjExLS4xOCAxLjg0IDQuMDQgNy42MSA4LjA0IDE1LjIgMTIuMSAyMi45Ljk2MSAxLjgyIDEuNyAzLjcyIDEuNzIgNS44MS4wNDcgNC43Ni0zLjQ0IDguNjYtOC4xNyA5LjM2LTIuNjUuMzg3LTUuMTEtLjE3OS03LjYtLjk0NS02LjA1LTEuODctMTIuMS0zLjcxLTE4LjItNS41NC0uNTYzLS4xNjgtLjc3OC0uMzkxLS44NzktLjk5Ni0uNjk2LTQuMjctMS40Ni04LjUzLTIuMi0xMi44LS4wMTktLjExNy4wMTYtLjI0Mi4wMzYtLjUwNCA2LjkxIDEuOTEgMTMuOCAzLjc5IDIwLjkgNS43NiIgc3R5bGU9ImZpbGwtcnVsZTpldmVub2RkO2ZpbGw6I2UyNWExYyIvPjxwYXRoIGQ9Im0yNzIgMTQ0Yy01LjQ2LS4wMDgtMTAuOS0uMDM1LTE2LjQtLjAxMS0uNzIzIDAtMS4xMy0uMjA3LTEuNTMtLjgyMS02LjQ2LTkuODQtMTMtMTkuNy0xOS40LTI5LjUtLjIwNy0uMzEyLS40MjYtLjYxMy0uNzkzLTEuMTQtMS4zOSAxMC42LTIuNzYgMjEtNC4xMyAzMS40aC0xNC4zYy4xNjgtMS4zOS4zMTctMi43NC40OTMtNC4wOCAxLjM5LTEwLjcgMi44LTIxLjMgNC4yLTMyIDEuMzQtMTAuMiAyLjY3LTIwLjQgNC4wMy0zMC42LjAzOS0uMzAxLjI0Mi0uNjg4LjQ4OC0uODQ4IDQuOTItMy4yMSA5Ljg2LTYuMzkgMTQuOC05LjU3LjA3MS0uMDQ3LjE3Mi0uMDUxLjQyNi0uMTI1LTEuNDkgMTEuNC0yLjk3IDIyLjctNC40NiAzNCAuMDU5LjAzOS4xMTcuMDgyLjE3Ni4xMjEgNy43NS04LjU4IDE1LjUtMTcuMiAyMy40LTI1LjkuMjI3IDEuMzIuNDI2IDIuNDUuNjIxIDMuNTguNTU1IDMuMjMgMS4wOSA2LjQ4IDEuNjggOS43MS4xMjEuNjUyLS4wNTUgMS4wNS0uNDg4IDEuNTEtNS4wMSA1LjI0LTEwIDEwLjUtMTUgMTUuOC0uMjE5LjIzMS0uNDI2LjQ2OS0uNjc2Ljc0My4xNi4yNTMuMjk3LjUuNDU3LjcyNiA4LjYxIDEyLjEgMTcuMiAyNC4yIDI1LjggMzYuMy4xNTYuMjE5LjM4Mi4zOTEuNTc0LjU4NnYuMTkxIiBzdHlsZT0iZmlsbC1ydWxlOmV2ZW5vZGQ7ZmlsbDojM2MzYTNlIi8+PHBhdGggZD0ibTEwMyAxMTJjLS4yMTktMS4xMS0uMzc1LTIuNzUtLjg3MS00LjI4LTIuNC03LjM5LTkuOTctMTEuNC0xNy44LTkuNjEtOC42MSAyLTE0LjggOC43Ny0xNS42IDE3LjYtLjY2IDYuNSAyLjg0IDEyLjggOS4zNCAxNS4xIDUuMjQgMS44OSAxMC4zIDEuMSAxNS0xLjcxIDYuMjEtMy43MiA5LjU3LTkuMjUgMTAtMTcuMXptLTM3LjggMjcuNWMtLjQyMiAzLjE4LS44MjggNi4xNy0xLjIyIDkuMTctLjUyMyAzLjk4LTEuMDUgNy45Ny0xLjU1IDEyLS4wNTguNDY1LS4xOTkuNjcyLS42OTkuNjY4LTMuOTMtLjAxNS03Ljg2LS4wMTEtMTEuOC0uMDE5LS4wOSAwLS4xOC0uMDQ3LS4zOTEtLjEwOS4yMzgtMS44OC40NjktMy43Ny43MTUtNS42NS44NjctNi42IDEuNzMtMTMuMiAyLjYxLTE5LjggMS4wMS03LjU2IDEuOC0xNS4xIDMuMDktMjIuNiAyLjI4LTEzLjMgMTMuNi0yNC43IDI2LjgtMjcuNiA3LjY3LTEuNjYgMTUtLjg5MSAyMS43IDMuNDMgNi42OCA0LjMgMTAuNSAxMC42IDExLjQgMTguNCAxLjI0IDExLjEtMi44NSAyMC4zLTEwLjcgMjgtNS4xOCA1LjAxLTExLjQgOC4xOS0xOC41IDkuMjctNy4zNyAxLjExLTE0LjMtLjExNy0yMC41LTQuNDYtLjIyNy0uMTYtLjQ3My0uMy0uODYzLS41NDYiIHN0eWxlPSJmaWxsLXJ1bGU6ZXZlbm9kZDtmaWxsOiMzYzNhM2UiLz48cGF0aCBkPSJtNTguNiA3Ni41Yy00LjQgMy4yOC04LjY1IDYuNDQtMTIuOSA5LjYxLS42ODctMS4wOC0xLjMtMi4xNi0yLjAyLTMuMTctMS44NS0yLjU5LTQuMTUtNC41Mi03LjQ5LTQuNzUtMi43OC0uMTk2LTUuMTYuNzE4LTcuMDUgMi43Ny0xLjY5IDEuODMtMS45MSA0LjQ0LS4zMzIgNi41MSAxLjc0IDIuMjggMy42NCA0LjQ0IDUuNTkgNi41NSAzLjIzIDMuNSA2LjYgNi44NiA5LjggMTAuNCAyLjkxIDMuMiA1LjI0IDYuNzggNS45NiAxMS4yLjg1NiA1LjItLjE4MyAxMC4xLTIuNjQgMTQuNy00LjU1IDguNDUtMTEuNyAxMy40LTIxLjIgMTQuOS00LjE4LjY3NS04LjM0LjU0My0xMi40LS42NTctNS40MS0xLjU5LTkuMTgtNS4xNC0xMS42LTEwLjEtLjg1NS0xLjc3LTEuNTEtMy42NC0yLjI4LTUuNTQgNC43My0yLjUzIDkuMzQtNSAxNC03LjQ5LjE2LjM4Ny4yNzcuNzExLjQyNiAxLjAyLjc5NyAxLjU5IDEuNDUgMy4yOCAyLjQzIDQuNzUgMi45MyA0LjM1IDcuNjUgNS42NyAxMi40IDMuNTIgMS4yMy0uNTU1IDIuNDItMS4zMyAzLjQzLTIuMjMgMy4wOC0yLjc0IDMuNjYtNi41NiAxLjM4LTEwLTEuMzEtMS45OC0yLjk1LTMuNzYtNC41NS01LjUzLTMuODItNC4yNC03LjgtOC4zNS0xMS41LTEyLjctMi41Ny0yLjk4LTQuMzItNi40NC00Ljg4LTEwLjQtLjYwNS00LjM2LjI2Ni04LjQ2IDIuNTMtMTIuMSA1LjYzLTkuMTEgMTMuOC0xMy44IDI0LjYtMTMuNSA2LjE3LjIyMyAxMS4xIDMuMTEgMTQuOSA3LjkxIDEuMTMgMS40MiAyLjE5IDIuODkgMy4zNCA0LjQzIiBzdHlsZT0iZmlsbC1ydWxlOmV2ZW5vZGQ7ZmlsbDojM2MzYTNlIi8+PHBhdGggZD0ibTE2MyAxMjVjLS43MTkgNS40OS0xLjQgMTAuNy0yLjEgMTUuOS0uMDM5LjI2Ni0uMjQ2LjYyNS0uNDY5LjcyNy0xMC43IDQuOTQtMjQuNyA0LjI1LTMzLjQtNS42OS00LjctNS4zNC02LjY3LTExLjctNi4zOC0xOC43LjY4My0xNi4zIDE0LjItMzAuNiAzMC40LTMyLjYgOS40NS0xLjE2IDE3LjcgMS4zOSAyNC4xIDguNzQgNC4zNiA1IDYuMzggMTEgNi4wOCAxNy42LS4xOTUgNC4zNi0uODc5IDguNjktMS40MiAxMy0uNzcgNi4xNC0xLjYxIDEyLjMtMi40MiAxOC40LS4wMzEuMjE0LS4wNzQuNDMzLS4xMjUuNzExaC0xMi43Yy4xNjgtMS40MS4zMjQtMi43OS41MDQtNC4xNy45MjItNy4wOSAxLjk0LTE0LjIgMi43NS0yMS4zLjUwNC00LjQyLjE4Ny04LjgxLTEuODQtMTIuOS0yLjE1LTQuMzUtNS43NS02LjY2LTEwLjUtNy4xNi05LjgyLTEuMDQtMTkuMiA1Ljc4LTIxLjIgMTUuNC0xLjM4IDYuMzguNzk3IDEyLjUgNS44OCAxNS45IDQuOTUgMy4yOSAxMC4yIDMuMyAxNS42IDEuMTcgMi43NC0xLjA4IDUuMDYtMi44IDcuMjgtNS4xMSIgc3R5bGU9ImZpbGwtcnVsZTpldmVub2RkO2ZpbGw6IzNjM2EzZSIvPjxwYXRoIGQ9Im0yMTcgODYuM2MtLjU4MiA0LjQyLTEuMTYgOC43Ny0xLjc0IDEzLjItMi43IDAtNS4zNC0uMDE1LTcuOTguMDA0LTIuMTQuMDE2LTQuMDkgMS40LTQuNzQgMy40LS4yNS43ODEtLjM0MyAxLjYyLS40NTMgMi40NC0xLjM0IDEwLjItMi42NyAyMC4zLTQgMzAuNC0uMzM2IDIuNTYtLjY2IDUuMTItLjk5NiA3LjcyaC0xMy4zYy4yNDYtMS45NS40OC0zLjg0LjcyNi01LjczLjg2My02LjU4IDEuNzMtMTMuMiAyLjYtMTkuNy43NTQtNS42OSAxLjQzLTExLjQgMi4zMi0xNy4xIDEuMTktNy42IDguNzUtMTQuNCAxNi40LTE0LjcgMy42Ni0uMTYgNy4zMy0uMDI3IDExLjEtLjAyNyIgc3R5bGU9ImZpbGwtcnVsZTpldmVub2RkO2ZpbGw6IzNjM2EzZSIvPjxwYXRoIGQ9Im0yODggMTQ0di01LjZoLS4wMzFsLTIuMiA1LjZoLS42OTlsLTIuMi01LjZoLS4wMzV2NS42aC0xLjF2LTYuNzFoMS43MWwyIDUuMSAxLjk3LTUuMWgxLjd2Ni43MXptLTkuNzQtNS44MXY1LjgxaC0xLjF2LTUuODFoLTIuMXYtLjg5OWg1LjMxdi44OTloLTIuMSIgc3R5bGU9ImZpbGw6IzNjM2EzZSIvPjxwYXRoIGQ9Im03Ni4zIDY3LjFoMy4yOWwtLjc3OC00Ljk4em0zLjgxIDMuMjJoLTUuNDdsLTEuNzQgMy40MWgtMy44OGw4LjU1LTE2aDMuNzRsMi45MSAxNmgtMy41OWwtLjUxNi0zLjQxIiBzdHlsZT0iZmlsbDojM2MzYTNlIi8+PHBhdGggZD0ibTk5LjcgNjFoLTEuOTVsLS42NTYgMy42OWgxLjk1YzEuMTggMCAyLjExLS43NzMgMi4xMS0yLjIzIDAtLjk2NS0uNTg2LTEuNDYtMS40Ni0xLjQ2em0tNC43Mi0zLjIyaDUuMTJjMi42OCAwIDQuNTUgMS42IDQuNTUgNC4zNCAwIDMuNDYtMi40NCA1Ljc4LTUuOTIgNS43OGgtMi4yMWwtMS4wNCA1Ljg1aC0zLjM0bDIuODItMTYiIHN0eWxlPSJmaWxsOiMzYzNhM2UiLz48cGF0aCBkPSJtMTE2IDY3LjFoMy4yOWwtLjc3Ny00Ljk4em0zLjggMy4yMmgtNS40N2wtMS43NCAzLjQxaC0zLjg4bDguNTUtMTZoMy43NGwyLjkxIDE2aC0zLjU5bC0uNTE2LTMuNDEiIHN0eWxlPSJmaWxsOiMzYzNhM2UiLz48cGF0aCBkPSJtMTQxIDczLjJjLTEuMTMuNTE2LTIuMzcuODI0LTMuNjIuODI0LTQuMjMgMC02Ljg4LTMuMTctNi44OC03LjE0IDAtNS4wOCA0LjI3LTkuMzUgOS4zNS05LjM1IDEuMjcgMCAyLjQyLjMwNSAzLjM2LjgybC0uNDY5IDMuODNjLS43MDMtLjc3Ny0xLjg0LTEuMzItMy4yNC0xLjMyLTIuOTEgMC01LjUgMi42My01LjUgNS42OCAwIDIuMzIgMS40NiA0LjE0IDMuNzYgNC4xNCAxLjQxIDAgMi43Ny0uNTQzIDMuNjktMS4yOWwtLjQ0NSAzLjgiIHN0eWxlPSJmaWxsOiMzYzNhM2UiLz48cGF0aCBkPSJtMTYyIDY3LjNoLTYuOTVsLTEuMTMgNi40M2gtMy4zM2wyLjgyLTE2aDMuMzRsLTEuMTIgNi4zMmg2Ljk1bDEuMTMtNi4zMmgzLjM0bC0yLjgyIDE2aC0zLjM0bDEuMTItNi40MyIgc3R5bGU9ImZpbGw6IzNjM2EzZSIvPjxwYXRoIGQ9Im0xNzQgNzMuNyAyLjgyLTE2aDguODZsLS41NjMgMy4yMmgtNS41MmwtLjU2MyAzLjFoNS4wN2wtLjU2MyAzLjIyaC01LjA3bC0uNTYzIDMuMjJoNS41MmwtLjU2MyAzLjIyaC04Ljg2IiBzdHlsZT0iZmlsbDojM2MzYTNlIi8+PC9nPjwvc3ZnPg==;" parent="1" vertex="1">
                    <mxGeometry x="1090" y="380" width="317.72" height="165" as="geometry"/>
                </mxCell>
            </root>
        </mxGraphModel>
    </diagram>
</mxfile>